<?xml version="1.0" encoding="utf-8"?>
<!-- Generator: Adobe Illustrator 16.0.0, SVG Export Plug-In . SVG Version: 6.00 Build 0)  -->
<!DOCTYPE svg PUBLIC "-//W3C//DTD SVG 1.1//EN" "http://www.w3.org/Graphics/SVG/1.1/DTD/svg11.dtd">
<svg version="1.1" id="Layer_1" xmlns="http://www.w3.org/2000/svg" xmlns:xlink="http://www.w3.org/1999/xlink" x="0px" y="0px"
	 width="349.167px" height="330.382px" viewBox="0 0 349.167 330.382" style="enable-background:new 0 0 349.167 330.382;"
	 xml:space="preserve">
<style type="text/css">
<![CDATA[
	.st0{fill:none;}
]]>
</style>
<path class="st0" d="M346.002,324.109h-78.251c-21.43,0-41.943-8.164-57.158-22.576h13.204c46.438,0,84.22-36.164,84.22-80.615
	v-49.627c7.415-1.419,12.929-7.681,12.929-15.146V96.042c0-1.729-1.42-3.137-3.165-3.137h-3.871V8.77c0-4.836-4.064-8.77-9.059-8.77
	s-9.059,3.934-9.059,8.77v84.136h-3.87c-1.745,0-3.166,1.407-3.166,3.137v60.104c0,7.466,5.513,13.727,12.929,15.146v49.627
	c0,40.992-34.939,74.342-77.888,74.342h-19.221c-6.641-7.837-11.679-17.033-14.706-26.816h84.926c1.745,0,3.166-1.407,3.166-3.137
	s-1.421-3.136-3.166-3.136H188.2c-1.157-5.301-1.744-10.562-1.744-15.666V131.918c7.416-1.419,12.93-7.68,12.93-15.146V82.256
	c16.4-6.215,27.293-21.428,27.293-38.394c0-22.782-19.338-41.316-43.107-41.316c-23.769,0-43.107,18.534-43.107,41.316
	c0,16.695,10.67,31.821,26.731,38.169v34.741c0,7.466,5.513,13.727,12.929,15.146v114.587c0,5.127,0.538,10.383,1.603,15.666
	c-42.189-0.076-76.486-32.859-76.486-73.145v-57.108c7.415-1.419,12.929-7.681,12.929-15.146v-106c0-1.729-1.42-3.137-3.166-3.137
	H89.146c-1.746,0-3.166,1.407-3.166,3.137v6.409H69.737c-1.746,0-3.166,1.406-3.166,3.136v5.718h-8.979V9.783
	c0-1.816-1.497-3.295-3.337-3.295h-15.27c-10.58,0-20.481,3.995-27.882,11.25C3.678,25.024-0.26,34.652,0.013,44.849
	c0.541,20.064,18.768,36.388,40.631,36.388h13.61c1.84,0,3.337-1.479,3.337-3.296V62.325h8.979v5.718
	c0,1.729,1.42,3.136,3.166,3.136h16.244v45.594c0,7.466,5.513,13.727,12.929,15.146v57.108c0,43.791,37.218,79.417,82.966,79.417
	h1.394c2.729,9.616,7.26,18.77,13.257,26.816H57.531c-1.746,0-3.166,1.407-3.166,3.137s1.42,3.137,3.166,3.137h144.197
	c16.708,18.349,40.703,28.849,66.022,28.849h78.251c1.745,0,3.165-1.407,3.165-3.137S347.747,324.109,346.002,324.109z
	 M302.124,8.77c0-1.377,1.223-2.497,2.727-2.497s2.727,1.12,2.727,2.497v21.034h-5.453V8.77z M302.124,62.257V36.076h5.453v26.181
	H302.124z M302.124,92.905V68.529h5.453v24.376H302.124z M314.614,99.178v56.968c0,5.085-4.38,9.223-9.764,9.223
	c-5.383,0-9.764-4.138-9.764-9.223V99.178H314.614z M196.22,76.724c-0.674,0-1.314,0.222-1.843,0.619
	c-3.526,1.037-7.158,1.563-10.806,1.563c-20.278,0-36.776-15.721-36.776-35.044s16.498-35.044,36.776-35.044
	c20.279,0,36.776,15.721,36.776,35.044c0,14.663-9.664,27.792-24.116,32.861C196.228,76.724,196.224,76.724,196.22,76.724z
	 M173.527,84.028c6.43,1.487,13.143,1.519,19.526,0.14v32.604c0,5.085-4.379,9.223-9.763,9.223s-9.764-4.138-9.764-9.223V84.028z
	 M85.981,23.454v41.452H72.903V23.454H85.981z M92.313,13.909h19.527v102.863c0,5.085-4.38,9.223-9.764,9.223
	c-5.383,0-9.763-4.138-9.763-9.223V13.909z M66.572,32.308v23.745h-8.979V32.308H66.572z M38.985,12.761h12.275v62.203H40.645
	c-18.464,0-33.852-13.583-34.302-30.279c-0.228-8.451,3.045-16.438,9.216-22.487C21.763,16.112,30.082,12.761,38.985,12.761z"/>
</svg>
